<svg id="Layer_1" data-name="Layer 1" xmlns="http://www.w3.org/2000/svg" viewBox="0 0 512 512"><defs><style>.cls-1{fill:#d9e4e8;}.cls-2{fill:#9bbdc6;}.cls-3{fill:#141f38;}</style></defs><title>notepad-2-filled</title><path class="cls-1" d="M115.2,499.2A51.26,51.26,0,0,1,64,448V89.6a51.26,51.26,0,0,1,51.2-51.2H396.8A51.26,51.26,0,0,1,448,89.6V353.1L302,499.2Z"/><path class="cls-2" d="M307.2,409.6a51.26,51.26,0,0,1,51.2-51.2h83.94L307.2,493.88Z"/><path class="cls-3" d="M396.8,25.6V12.8a12.8,12.8,0,1,0-25.6,0V25.6H332.8V12.8a12.8,12.8,0,1,0-25.6,0V25.6H268.8V12.8a12.8,12.8,0,1,0-25.6,0V25.6H204.8V12.8a12.8,12.8,0,0,0-25.6,0V25.6H140.8V12.8a12.8,12.8,0,0,0-25.6,0V25.6a64,64,0,0,0-64,64V448a64,64,0,0,0,64,64H307.34L460.8,358.4V89.6A64,64,0,0,0,396.8,25.6ZM320,462.92V409.6a38.44,38.44,0,0,1,38.4-38.4h53.09ZM358.4,345.6a64,64,0,0,0-64,64v76.8H115.2A38.44,38.44,0,0,1,76.8,448V89.6a38.44,38.44,0,0,1,38.4-38.4V64a12.8,12.8,0,0,0,25.6,0V51.2h38.4V64a12.8,12.8,0,0,0,25.6,0V51.2h38.4V64a12.8,12.8,0,1,0,25.6,0V51.2h38.4V64a12.8,12.8,0,0,0,25.6,0V51.2h38.4V64a12.8,12.8,0,0,0,25.6,0V51.2a38.44,38.44,0,0,1,38.4,38.4v256Zm-76.8-76.8a12.8,12.8,0,0,1-12.8,12.8H166.4a12.8,12.8,0,0,1,0-25.6H268.8A12.8,12.8,0,0,1,281.6,268.8Zm76.8-51.2a12.8,12.8,0,0,1-12.8,12.8H166.4a12.8,12.8,0,0,1,0-25.6H345.6A12.8,12.8,0,0,1,358.4,217.6ZM153.6,166.4a12.8,12.8,0,0,1,12.8-12.8H345.22a12.8,12.8,0,0,1,0,25.6H166.4A12.8,12.8,0,0,1,153.6,166.4Z"/></svg>